<svg width="143.31500549316405px" height="97.76000366210937px" xmlns="http://www.w3.org/2000/svg" viewBox="178.34249725341797 26.119998168945315 143.31500549316405 97.76000366210937" style="background: transparent;" preserveAspectRatio="xMidYMid"><defs><filter id="editing-hole" x="-100%" y="-100%" width="300%" height="300%"><feFlood flood-color="#050505" result="black"></feFlood><feMorphology operator="dilate" radius="2" in="SourceGraphic" result="erode"></feMorphology><feGaussianBlur in="erode" stdDeviation="4" result="blur"></feGaussianBlur><feOffset in="blur" dx="2" dy="2" result="offset"></feOffset><feComposite operator="atop" in="offset" in2="black" result="merge"></feComposite><feComposite operator="in" in="merge" in2="SourceGraphic" result="inner-shadow"></feComposite></filter></defs><g filter="url(#editing-hole)"><g transform="translate(204.06500339508057, 93.12000274658203)"><path d="M12.77 0L3.12 0.05L3.17-0.62L5.66-0.96L5.66-0.96Q6-1.01 6.10-1.44L6.10-1.44L6.10-34.27L6.10-34.27Q6.10-34.80 5.81-34.80L5.81-34.80L2.88-34.90L2.93-35.57L2.93-35.57Q5.95-36 7.08-36L7.08-36L7.08-36Q8.21-36 8.71-35.38L8.71-35.38L8.71-35.38Q9.22-34.75 9.22-34.03L9.22-34.03L9.22-0.96L12.82-0.72L12.82-0.72Q12.82-0.67 12.77 0L12.77 0ZM17.28-22.99L14.78-23.23L14.74-23.95L21.22-24L21.22-7.30L21.22-7.30Q21.22-5.42 21.74-4.06L21.74-4.06L21.74-4.06Q22.27-2.69 22.92-2.06L22.92-2.06L22.92-2.06Q23.57-1.44 24.43-1.10L24.43-1.10L24.43-1.10Q25.78-0.62 26.69-0.72L26.69-0.72L26.69-0.72Q29.62-0.77 33.36-3.74L33.36-3.74L33.36-22.32L33.36-22.32Q33.17-22.90 32.54-22.99L32.54-22.99L30.05-23.23L30.05-23.23Q30.00-23.52 30.00-23.95L30.00-23.95L36.48-24L36.48-2.21L36.48-2.21Q36.58-1.01 37.25-1.01L37.25-1.01L40.13-0.86L40.08-0.14L40.08-0.14Q37.78 0.24 35.28 0.24L35.28 0.24L35.28 0.24Q34.70 0.19 34.03-0.41L34.03-0.41L34.03-0.41Q33.36-1.01 33.36-1.92L33.36-1.92L33.36-2.78L33.36-2.78Q28.99 0.14 25.10 0.14L25.10 0.14L25.10 0.14Q23.47 0.14 21.26-0.67L21.26-0.67L21.26-0.67Q19.82-1.20 18.96-2.66L18.96-2.66L18.96-2.66Q18.10-4.13 18.10-6.34L18.10-6.34L18.10-22.27L18.10-22.27Q18.10-22.51 17.83-22.73L17.83-22.73L17.83-22.73Q17.57-22.94 17.28-22.99L17.28-22.99ZM63.22-23.95L66.43-24L66.43-24Q66.43-23.95 66.48-23.28L66.48-23.28L64.37-23.04L57.12-12L64.75-0.86L67.34-0.72L67.34-0.72Q67.34-0.67 67.30 0L67.30 0L56.98 0.05L56.98 0.05Q56.98-0.38 57.02-0.62L57.02-0.62L60.05-1.01L60.05-1.01Q60.34-1.06 60.46-1.27L60.46-1.27L60.46-1.27Q60.58-1.49 60.43-1.68L60.43-1.68L54.67-10.61L47.90 0L43.30 0.05L43.25-0.67L46.90-1.01L53.90-11.71L53.33-12.67L45.89-23.76L49.73-23.76L50.21-22.99L46.90-22.27L46.90-22.27Q46.37-22.94 46.08-22.99L46.08-22.99L44.21-23.23L44.21-23.23Q44.16-23.52 44.16-23.95L44.16-23.95L54.24-24L54.24-24Q54.24-23.95 54.29-23.28L54.29-23.28L50.21-22.99L56.35-13.15L63.22-23.95ZM71.66-11.04L71.66-11.04L71.66-11.04Q71.66-0.67 79.73-0.67L79.73-0.67L79.73-0.67Q81.84-0.67 84.24-1.13L84.24-1.13L84.24-1.13Q86.64-1.58 87.31-1.97L87.31-1.97L87.65-1.49L87.65-1.49Q86.54-0.77 84.02-0.29L84.02-0.29L84.02-0.29Q81.50 0.19 79.42 0.19L79.42 0.19L79.42 0.19Q77.33 0.19 75.67-0.24L75.67-0.24L75.67-0.24Q74.02-0.67 72.29-1.78L72.29-1.78L72.29-1.78Q70.56-2.88 69.55-5.23L69.55-5.23L69.55-5.23Q68.54-7.58 68.54-10.99L68.54-10.99L68.54-10.99Q68.54-17.33 71.81-20.69L71.81-20.69L71.81-20.69Q75.22-24.19 79.73-24.19L79.73-24.19L79.73-24.19Q84.24-24.19 86.62-21.70L86.62-21.70L86.62-21.70Q88.99-19.20 88.99-14.69L88.99-14.69L88.99-14.69Q88.99-13.73 88.85-12.62L88.85-12.62L71.71-12.62L71.71-12.62Q71.66-12.10 71.66-11.04ZM86.16-15.02L86.16-15.02L86.16-15.02Q86.16-18.62 84.58-20.90L84.58-20.90L84.58-20.90Q82.99-23.18 80.26-23.18L80.26-23.18L80.26-23.18Q76.70-23.18 74.26-20.06L74.26-20.06L74.26-20.06Q72.29-17.62 71.81-13.54L71.81-13.54L86.11-13.54L86.11-13.54Q86.16-14.06 86.16-15.02Z" fill="#020608"></path></g></g><style>text {
  font-size: 67px;
  font-family: Arial Black;
  dominant-baseline: central;
  text-anchor: middle;
}</style></svg>